PathFileType	4	(X/Y/Z)	C:/Users/beibeiliu/ov580/test_trc/capture2\sequence.30_training_dense_left.trc
DataRate	CameraRate	NumFrames	NumMarkers	Units	OrigDataRate	OrigDataStartFrame	OrigNumFrames
120	120	18	19	mm	120	1	400
Frame#	Time	ThumbCMC			ThumbMCP			ThumbIP			ThumbTip			IndexMCP			IndexPIP			IndexTip			MiddleMCP			MiddlePIP			MiddleTip			RingMCP			RingPIP			RingTip			PinkyMCP			PinkyPIP			PinkyTip			BackHand1			BackHand2			BackHand3	
		X0	Y0	Z0	X1	Y1	Z1	X2	Y2	Z2	X3	Y3	Z3	X4	Y4	Z4	X5	Y5	Z5	X6	Y6	Z6	X7	Y7	Z7	X8	Y8	Z8	X9	Y9	Z9	X10	Y10	Z10	X11	Y11	Z11	X12	Y12	Z12	X13	Y13	Z13	X14	Y14	Z14	X15	Y15	Z15	X16	Y16	Z16	X17	Y17	Z17	X18	Y18	Z18	
0	0	-132.917	45.5941	17.1366	-115.642	33.6646	0.0335929	-93.6458	32.0371	-17.1681	-77.606	29.6449	-36.956	-134.031	66.1141	-56.0896	-124.715	66.1408	-79.8952	-119.008	67.1606	-110.075	-154.356	68.8978	-67.7525	-152.495	68.9856	-95.302	-151.207	64.7702	-124.754	-174.005	63.6504	-70.0655	-175.109	63.1162	-91.4098	-174.99	60.8757	-118.25	-200.013	55.246	-61.5211	-202.244	53.0296	-79.9722	-203.244	57.2826	-105.439	-183.745	70.9065	-20.6496	-191.111	70.3875	13.3719	-157.011	71.5758	0.873689	
1	0.00833333	-134.559	45.4525	13.8744	-114.986	34.8566	-1.62605	-99.0105	32.1679	-20.3636	-79.2574	29.2602	-37.9167	-135.249	66.835	-58.2567	-126.68	67.5106	-85.0139	-122.168	66.7685	-112.179	-154.402	69.4622	-70.6633	-153.006	69.2053	-93.1969	-152.596	65.1332	-125.309	-179.902	64.0854	-69.1025	-175.46	62.5611	-92.2141	-175.306	61.2182	-123.674	-198.778	54.5273	-57.6499	-203.722	54.0315	-85.2334	-207.528	58.8029	-104.257	-187.584	69.5495	-17.8317	-190.207	71.4854	10.6064	-156.595	70.8107	-1.28129	
2	0.0166667	-135.735	44.4978	15.5405	-118.182	34.0394	0.0402942	-95.4931	31.6974	-22.4714	-83.4773	28.9592	-35.2309	-129.991	66.5547	-60.6942	-127.725	66.6151	-82.8999	-119.582	66.9982	-107.29	-157.603	69.2528	-67.765	-153.551	68.5201	-94.4594	-150.111	65.3535	-123.146	-175.589	63.8216	-66.4169	-175.858	62.3467	-96.7093	-176.975	60.798	-122.823	-200.655	55.9774	-59.0077	-204.594	53.7001	-83.0285	-206.475	56.75	-104.897	-188.48	70.3605	-18.4974	-189.979	69.862	10.3184	-159.103	70.3364	1.12017	
3	0.025	-131.909	45.2244	12.0034	-118.137	33.9696	-2.82986	-98.0336	31.1128	-20.932	-83.3613	27.986	-33.384	-132.882	66.1715	-60.4386	-122.924	67.1206	-84.945	-125.107	66.6465	-107.116	-155.5	68.619	-66.0174	-153.686	68.4636	-96.4442	-152.884	65.075	-124.123	-174.901	64.3061	-68.8568	-176.887	62.7952	-95.3623	-175.244	61.5451	-117.559	-196.314	54.9456	-57.3473	-200.304	55.3338	-82.1847	-207.022	59.496	-104.337	-186.244	69.3144	-21.1253	-193.676	70.4255	8.47949	-157.172	70.7691	-1.40498	
4	0.0333333	-137.52	43.8009	14.9879	-116.785	33.3958	-3.70634	-96.5111	29.8739	-18.5573	-80.9999	26.923	-33.9371	-131.156	65.7104	-56.0259	-125.769	66.8076	-79.9184	-120.757	67.2396	-105.367	-153.003	70.088	-70.6846	-151.241	67.5425	-97.9849	-151.199	65.3361	-122.046	-179.935	62.7326	-68.4457	-175.614	62.7512	-96.2983	-176.811	60.2211	-122.088	-201.898	54.6976	-59.9533	-199.651	54.2768	-80.6267	-207.552	59.1291	-104.56	-187.407	70.3052	-20.3379	-188.248	70.4299	8.37476	-158.368	69.2393	-1.37001	
5	0.0416667	-136.892	43.7766	11.4962	-118.909	33.1662	-2.92955	-99.0515	30.2262	-23.0221	-81.7468	26.3884	-35.3576	-131.574	64.2953	-54.5327	-128.773	65.4748	-84.2539	-122.565	65.9565	-105.288	-158.112	67.7782	-70.0885	-153.343	67.1369	-95.059	-155.18	63.3448	-123.332	-181.254	61.9301	-68.2427	-179.552	61.3656	-96.0888	-179.46	59.4357	-118.908	-200.535	54.8611	-58.7495	-201.232	53.4406	-78.3745	-208.97	56.0264	-103.802	-185.599	68.8234	-16.0759	-191.837	68.8632	10.1291	-156.232	68.3417	0.833219	
6	0.05	-135.002	43.1595	12.8368	-116.728	32.1164	-2.68547	-102.131	27.3663	-19.2458	-85.6844	25.6259	-35.6785	-135.213	63.9954	-59.9632	-126.859	63.6245	-79.4289	-125.67	64.3486	-105.972	-159.481	66.7933	-70.3059	-154.015	66.0438	-92.4041	-153.466	63.3332	-124.686	-177.403	60.5405	-65.1113	-179.326	59.994	-92.606	-176.016	59.6212	-121.778	-203.506	52.9982	-58.8275	-204.621	52.0693	-83.6849	-209.762	55.264	-104.934	-185.172	65.5451	-15.4207	-194.035	67.9403	11.7993	-160.098	69.0195	1.83213	
7	0.0583333	-136.575	42.4372	17.9182	-118.596	30.8004	0.634053	-97.5563	28.5752	-20.7536	-82.8634	25.0643	-33.8995	-134.61	63.5363	-57.9954	-125.714	62.9279	-83.6463	-126.898	64.0003	-105.92	-157.987	65.774	-69.4519	-155.396	64.8741	-93.0679	-150.356	61.6525	-126.359	-177.403	60.0643	-66.1176	-182.133	58.6133	-93.0524	-179.749	57.4913	-118.074	-203.366	53.2929	-60.8549	-204.037	50.6685	-79.678	-209.596	53.4382	-107.424	-190.689	65.6229	-16.1035	-193.775	67.3867	10.2167	-157.196	69.0866	1.79484	
8	0.0666667	-136.398	41.0041	15.318	-118.88	30.0105	-2.00534	-102.096	27.1429	-19.9763	-83.8732	24.7372	-38.1427	-135.065	62.361	-55.1031	-127.045	63.4004	-83.8573	-121.061	63.426	-108.779	-157.966	64.6487	-65.5515	-157.869	64.1103	-96.3994	-153.696	61.0989	-123.511	-179.489	58.9363	-67.6806	-181.93	57.156	-92.0968	-176.788	55.492	-119.924	-204.069	50.1124	-56.143	-204.589	47.9344	-78.0676	-211.74	50.6385	-104.358	-187.804	63.9615	-17.0248	-195.058	65.4705	13.3263	-159.443	65.8276	2.62682	
9	0.075	-138.536	41.0475	16.949	-115.038	29.6603	0.512178	-97.6449	26.8952	-15.7861	-86.7007	22.6591	-34.5493	-133.834	62.1549	-55.4477	-130.371	63.685	-78.6611	-125.261	66.2098	-105.232	-156.5	64.698	-67.0536	-154.14	64.3305	-93.0362	-153.256	60.848	-121.259	-176.418	58.1865	-67.8747	-183.272	55.9703	-90.1014	-179.069	52.6599	-117.872	-199.949	47.3953	-55.2069	-206.814	43.4361	-80.022	-211.726	44.765	-102.349	-190.797	63.6428	-16.4626	-194.11	65.6814	9.84979	-158.807	66.0368	3.92836	
10	0.0833333	-135.444	42.436	15.9063	-116.929	30.1299	0.984636	-98.2316	26.3651	-17.6251	-82.1077	23.2948	-34.435	-136.257	62.329	-56.2522	-127.567	64.6304	-77.9455	-125.399	68.9004	-105.754	-158.194	64.3721	-68.1301	-155.676	63.2515	-91.4382	-157.506	60.5119	-120.825	-183.272	54.8759	-66.028	-182.919	53.3479	-89.9143	-178.62	50.4637	-118.72	-200.612	43.6924	-55.4175	-206.944	38.202	-78.3905	-213.231	36.7377	-100.244	-191.019	62.4496	-15.5826	-193.551	63.5348	9.59587	-160.997	66.9241	2.75445	
11	0.0916667	-138.815	41.1693	18.4064	-114.507	29.9733	4.07366	-96.4154	26.7836	-14.6968	-85.143	23.0402	-32.8259	-134.502	62.581	-55.433	-126.903	65.3902	-79.0006	-126.031	69.9956	-100.16	-158.663	62.7562	-64.5152	-158.091	62.9669	-92.8412	-155.886	60.7215	-123.357	-181.664	52.5125	-63.4532	-179.24	50.0022	-88.2925	-180.602	46.634	-114.524	-199.795	40.3564	-60.1168	-204.406	32.2037	-75.0858	-215.539	27.7521	-100.015	-190.482	63.0806	-16.922	-196.156	63.8975	11.8022	-157.712	64.9309	2.15836	
12	0.1	-137.429	42.739	14.7561	-119.039	28.9742	1.20215	-95.6382	25.8279	-14.2992	-80.9056	23.6116	-30.2811	-133.32	62.7018	-55.5682	-125.121	65.6354	-76.4885	-124.808	70.9202	-97.262	-156.504	62.1044	-65.7129	-157.225	61.5794	-93.4789	-157.283	60.4307	-118.761	-182.697	50.9479	-64.7327	-177.408	47.2911	-90.8061	-178.883	42.4986	-115.367	-202.755	36.61	-54.6798	-205.257	26.9237	-73.2204	-211.915	19.9075	-100.087	-185.638	60.2046	-17.0348	-193.396	62.5287	15.0725	-159.945	64.3028	4.5163	
13	0.108333	-135.308	41.2016	19.1561	-113.488	29.7995	1.74051	-94.4635	27.1238	-16.4954	-79.8253	23.2465	-32.0583	-137.656	61.2263	-52.9688	-128.728	65.3683	-73.8972	-124.993	73.4709	-100.059	-157.929	62.3268	-67.0553	-155.371	61.3169	-92.3738	-154.777	60.1746	-117.697	-179.384	49.7652	-66.2516	-179.631	44.6896	-87.1355	-177.818	39.017	-113.364	-198.922	35.0175	-58.9118	-204.038	20.6018	-77.3804	-206.797	12.4883	-98.4495	-186.038	59.2204	-16.6823	-192.082	63.6849	13.0015	-159.54	66.5444	6.52711	
14	0.116667	-132.731	42.4345	19.1682	-114.816	29.7799	4.86333	-94.5737	26.4232	-13.7848	-81.8974	23.4269	-31.5463	-136.891	61.698	-55.297	-129.993	65.0305	-75.4518	-125.801	73.0426	-98.7834	-156.872	60.6596	-63.2869	-155.023	60.5063	-90.1682	-156.858	59.6727	-122.421	-178.733	48.7848	-64.7145	-179.381	42.7584	-89.1326	-176.596	35.2879	-112.091	-201.749	31.8259	-57.7445	-202.698	19.7333	-72.2334	-204.746	4.49947	-97.9392	-189.955	60.2962	-13.7994	-190.248	61.1219	13.4421	-159.471	65.4356	4.05206	
15	0.125	-132.175	41.7767	19.0739	-114.378	29.8397	1.67246	-93.0193	27.822	-18.1467	-80.5944	22.9002	-29.7494	-134.583	61.2389	-52.8248	-126.088	65.3003	-74.4982	-127.481	75.4875	-100.133	-160.072	60.3014	-62.1835	-154.711	60.6638	-92.3382	-156.634	60.297	-117.769	-179.986	47.7214	-62.6613	-177.929	39.8761	-86.5906	-178.081	29.6759	-112.027	-201.041	30.0296	-55.3508	-197.758	15.1658	-70.856	-196.707	-2.05465	-91.8954	-186.169	59.6201	-15.4252	-189.759	62.2848	15.0487	-155.965	67.1547	2.36819	
16	0.133333	-130.893	43.042	21.1283	-111.215	31.3012	0.00536214	-94.9897	28.3468	-16.2035	-78.8537	26.0581	-34.4388	-135.703	60.6032	-50.7299	-129.447	64.8582	-77.3696	-127.57	74.4197	-96.7486	-161.515	58.5771	-60.6123	-159.911	59.3015	-89.7101	-159.54	59.338	-116.376	-176.346	45.1008	-63.0716	-179.827	35.1381	-88.0592	-177.327	21.3108	-113.624	-197.824	26.8359	-53.8263	-195.871	10.316	-66.1005	-192.365	-10.1844	-81.6582	-186.901	60.9332	-10.3357	-187.62	64.5399	14.5148	-156.883	67.1344	2.27803	
17	0.141667	-128.487	43.7095	19.5726	-113.826	31.0409	3.90884	-95.3347	28.6618	-15.3292	-78.6813	26.7142	-32.4197	-132.735	60.704	-49.4703	-129.643	65.0342	-76.8159	-127.506	74.0344	-95.856	-159.847	59.2587	-64.7905	-157.629	58.1122	-88.1763	-160.991	58.4068	-120.012	-179.812	43.4406	-63.2336	-180.666	32.17	-84.5223	-173.038	14.2738	-107.754	-195.767	27.5459	-50.1728	-193.925	3.87045	-63.1326	-189.015	-15.1384	-72.7105	-184.194	61.9931	-12.4181	-188.977	64.1452	14.9202	-157.803	66.7675	4.4167	
